<?xml version="1.0" standalone="no"?><!DOCTYPE svg PUBLIC "-//W3C//DTD SVG 1.1//EN"
        "http://www.w3.org/Graphics/SVG/1.1/DTD/svg11.dtd">
<svg viewBox="0 0 1024 1024" version="1.1" xmlns="http://www.w3.org/2000/svg"
     xmlns:xlink="http://www.w3.org/1999/xlink" width="128" height="128">
    <path d="M0 0m320 0l384 0q320 0 320 320l0 384q0 320-320 320l-384 0q-320 0-320-320l0-384q0-320 320-320Z"
          fill="#0a66c2"/>
    <path d="M730.8 390.96v242.4a16 16 0 0 1-6.72 8.48Q656 681.12 587.44 720.56l-70.08 40.4a10.32 10.32 0 0 1-11.12 0L476.72 744l-88-50.8c-29.36-16.96-58.72-34.08-88-50.96a12.24 12.24 0 0 1-7.04-12V483.36 392.56a10.56 10.56 0 0 1 6.16-10.32l3.52-2.08 128.56-74.16 74.32-42.88a10.96 10.96 0 0 1 11.68 0L630.4 328l88.8 51.12c4.96 3.04 10.24 5.52 11.6 11.84z m-291.52 78.4l0.64-0.4 1.36 1.68q37.84 45.04 75.52 90.16c16.48 19.68 33.04 39.36 49.44 59.2a50.72 50.72 0 0 0 52.72 14.56 28.08 28.08 0 0 0 18.72-24.64V412.8a28.4 28.4 0 0 0-39.6-25.6 27.2 27.2 0 0 0-18.16 27.52V552.4h-0.96c-0.48-0.64-0.8-1.36-1.36-2l-53.52-64c-23.44-28-46.96-56-70.24-84.16a51.52 51.52 0 0 0-52.56-15.12 27.92 27.92 0 0 0-19.2 25.6v196.64a26.16 26.16 0 0 0 1.92 9.68 28.8 28.8 0 0 0 56-9.92V472.56z"
          />
</svg>
