<?xml version="1.0" standalone="no"?><!DOCTYPE svg PUBLIC "-//W3C//DTD SVG 1.1//EN"
        "http://www.w3.org/Graphics/SVG/1.1/DTD/svg11.dtd">
<svg viewBox="0 0 1024 1024" version="1.1" xmlns="http://www.w3.org/2000/svg"
     xmlns:xlink="http://www.w3.org/1999/xlink" width="128" height="128">
    <path d="M498.346667 0l455.111111 256v512l-455.111111 256-455.111111-256V256l455.111111-256z m0 66.161778L102.286222 289.080889v447.288889l396.060445 221.468444 396.088889-222.919111V289.080889L498.346667 66.161778z m225.792 306.631111l9.443555 7.480889a114.801778 114.801778 0 0 1 48.696889 74.211555 123.648 123.648 0 0 1 83.512889 4.209778l6.513778 2.958222v1.137778l10.922666 5.774222-5.603555 10.638223c-23.950222 37.205333-68.152889 57.173333-112.753778 50.915555-67.299556 158.492444-202.467556 240.753778-379.562667 240.753778-90.88 2.417778-176.839111-39.452444-229.489777-111.217778l-5.12-7.281778-7.111111-13.511111a204.174222 204.174222 0 0 1-18.488889-98.929778l0.796444-9.244444v-11.207111h509.127111a178.915556 178.915556 0 0 0 53.703111-8.334222c9.130667-2.844444 17.92-6.627556 26.254223-11.235556a88.092444 88.092444 0 0 1-17.976889-47.445333 96.369778 96.369778 0 0 1 15.217777-65.592889l3.669334-5.176889 8.248889-8.903111zM272.241778 600.149333c-20.224 0-36.636444 15.985778-36.636445 35.726223 0 19.712 16.412444 35.726222 36.636445 35.726222 20.252444 0 36.693333-16.014222 36.693333-35.726222 0-19.740444-16.440889-35.726222-36.693333-35.726223z m0 7.139556c16.213333 0 29.326222 12.8 29.326222 28.586667 0 15.786667-13.112889 28.586667-29.297778 28.586666-16.213333 0-29.326222-12.8-29.326222-28.586666 0-15.786667 13.112889-28.586667 29.297778-28.586667z m-35.982222-182.442667v70.456889H163.953778v-70.456889h72.305778z m96.227555 0v70.456889H260.181333v-70.456889h72.305778z m96.512 0v70.456889H356.693333v-70.456889h72.305778z m96.512 0v70.456889h-72.305778v-70.456889h72.305778z m96.227556 0v70.456889h-72.334223v-70.456889h72.334223z m-289.251556-93.781333v70.485333H260.181333v-70.485333h72.305778z m96.512 0v70.485333H356.693333v-70.485333h72.305778z m96.512 0v70.485333h-72.305778v-70.485333h72.305778z m0-94.037333v70.456888h-72.305778V237.027556h72.305778z"
          fill="#0a66c2"/>
</svg>
